# xmcd CD database file
#
# Track frame offsets:
#	150
#	16307
#	30290
#	45656
#	63809
#	80432
#	96098
#	113552
#	130057
#	145427
#	158045
#
# Disc length: 2352 seconds
#
# Revision: 0
# Processed by: cddbd v1.5.2PL0 Copyright (c) Steve Scherf et al.
# Submitted via: CDex 1.79
#
DISCID=7e092e0b
DTITLE=Brandon Kinney - Smells Like Texas
DYEAR=2008
DGENRE=Country
TTITLE0=Hicks
TTITLE1=The Greatest Song Ever Written
TTITLE2=Don`t Tell Me
TTITLE3=Redneck, Black Bra, White T-Shirt
TTITLE4=When She Drinks Too Much
TTITLE5=Smoker
TTITLE6=Pull My Finger
TTITLE7=I Need A Beer
TTITLE8=Homie Don`t Play That Game
TTITLE9=She`s Gonna Have My Children
TTITLE10=Rough Crowd (featuring John Anderson)
EXTD=YEAR: 2008
EXTT0=
EXTT1=
EXTT2=
EXTT3=
EXTT4=
EXTT5=
EXTT6=
EXTT7=
EXTT8=
EXTT9=
EXTT10=
PLAYORDER=
